<mxfile host="app.diagrams.net" agent="Mozilla/5.0 (Windows NT 10.0; Win64; x64) AppleWebKit/537.36 (KHTML, like Gecko) Chrome/129.0.0.0 Safari/537.36" version="24.7.17">
  <diagram id="R2lEEEUBdFMjLlhIrx00" name="Page-1">
    <mxGraphModel dx="1185" dy="632" grid="1" gridSize="10" guides="1" tooltips="1" connect="1" arrows="1" fold="1" page="1" pageScale="1" pageWidth="850" pageHeight="1100" math="0" shadow="0" extFonts="Permanent Marker^https://fonts.googleapis.com/css?family=Permanent+Marker">
      <root>
        <mxCell id="0" />
        <mxCell id="1" parent="0" />
        <mxCell id="rlsM08tnauYEwvajaNZo-6" value="User" style="swimlane;childLayout=stackLayout;horizontal=1;startSize=50;horizontalStack=0;rounded=1;fontSize=14;fontStyle=0;strokeWidth=2;resizeParent=0;resizeLast=1;shadow=0;dashed=0;align=center;arcSize=4;whiteSpace=wrap;html=1;" parent="1" vertex="1">
          <mxGeometry x="60" y="150" width="160" height="100" as="geometry" />
        </mxCell>
        <mxCell id="rlsM08tnauYEwvajaNZo-7" value="&lt;u&gt;userID&lt;/u&gt;&lt;div&gt;password&lt;/div&gt;" style="align=left;strokeColor=none;fillColor=none;spacingLeft=4;fontSize=12;verticalAlign=top;resizable=0;rotatable=0;part=1;html=1;" parent="rlsM08tnauYEwvajaNZo-6" vertex="1">
          <mxGeometry y="50" width="160" height="50" as="geometry" />
        </mxCell>
        <mxCell id="rlsM08tnauYEwvajaNZo-8" value="Book" style="swimlane;childLayout=stackLayout;horizontal=1;startSize=50;horizontalStack=0;rounded=1;fontSize=14;fontStyle=0;strokeWidth=2;resizeParent=0;resizeLast=1;shadow=0;dashed=0;align=center;arcSize=4;whiteSpace=wrap;html=1;" parent="1" vertex="1">
          <mxGeometry x="50" y="385" width="160" height="130" as="geometry" />
        </mxCell>
        <mxCell id="rlsM08tnauYEwvajaNZo-9" value="&lt;u&gt;bookID&lt;/u&gt;&lt;div&gt;title&lt;/div&gt;&lt;div&gt;composer&lt;/div&gt;&lt;div&gt;publisher&lt;/div&gt;&lt;div&gt;&lt;br&gt;&lt;/div&gt;" style="align=left;strokeColor=none;fillColor=none;spacingLeft=4;fontSize=12;verticalAlign=top;resizable=0;rotatable=0;part=1;html=1;" parent="rlsM08tnauYEwvajaNZo-8" vertex="1">
          <mxGeometry y="50" width="160" height="80" as="geometry" />
        </mxCell>
        <mxCell id="rlsM08tnauYEwvajaNZo-10" value="Song" style="swimlane;childLayout=stackLayout;horizontal=1;startSize=50;horizontalStack=0;rounded=1;fontSize=14;fontStyle=0;strokeWidth=2;resizeParent=0;resizeLast=1;shadow=0;dashed=0;align=center;arcSize=4;whiteSpace=wrap;html=1;" parent="1" vertex="1">
          <mxGeometry x="610" y="528.75" width="160" height="122.5" as="geometry" />
        </mxCell>
        <mxCell id="rlsM08tnauYEwvajaNZo-11" value="&lt;u&gt;songID&lt;/u&gt;&lt;div&gt;title&lt;/div&gt;&lt;div&gt;composer&lt;/div&gt;&lt;div&gt;&lt;span style=&quot;background-color: initial;&quot;&gt;length&lt;/span&gt;&lt;/div&gt;" style="align=left;strokeColor=none;fillColor=none;spacingLeft=4;fontSize=12;verticalAlign=top;resizable=0;rotatable=0;part=1;html=1;" parent="rlsM08tnauYEwvajaNZo-10" vertex="1">
          <mxGeometry y="50" width="160" height="72.5" as="geometry" />
        </mxCell>
        <mxCell id="rlsM08tnauYEwvajaNZo-25" value="user_library" style="shape=ext;margin=3;double=1;whiteSpace=wrap;html=1;align=center;" parent="1" vertex="1">
          <mxGeometry x="450" y="180" width="100" height="40" as="geometry" />
        </mxCell>
        <mxCell id="rlsM08tnauYEwvajaNZo-26" value="Is/Contains/Instance of" style="shape=rhombus;perimeter=rhombusPerimeter;whiteSpace=wrap;html=1;align=center;" parent="1" vertex="1">
          <mxGeometry x="390" y="410" width="160" height="80" as="geometry" />
        </mxCell>
        <mxCell id="rlsM08tnauYEwvajaNZo-31" value="" style="endArrow=none;html=1;rounded=0;" parent="1" source="rlsM08tnauYEwvajaNZo-6" target="rlsM08tnauYEwvajaNZo-36" edge="1">
          <mxGeometry relative="1" as="geometry">
            <mxPoint x="210" y="227" as="sourcePoint" />
            <mxPoint x="410" y="370" as="targetPoint" />
          </mxGeometry>
        </mxCell>
        <mxCell id="rlsM08tnauYEwvajaNZo-32" value="1" style="resizable=0;html=1;whiteSpace=wrap;align=right;verticalAlign=bottom;" parent="rlsM08tnauYEwvajaNZo-31" connectable="0" vertex="1">
          <mxGeometry x="1" relative="1" as="geometry" />
        </mxCell>
        <mxCell id="rlsM08tnauYEwvajaNZo-33" value="" style="endArrow=none;html=1;rounded=0;" parent="1" source="rlsM08tnauYEwvajaNZo-25" target="rlsM08tnauYEwvajaNZo-36" edge="1">
          <mxGeometry relative="1" as="geometry">
            <mxPoint x="440" y="300" as="sourcePoint" />
            <mxPoint x="600" y="320" as="targetPoint" />
          </mxGeometry>
        </mxCell>
        <mxCell id="rlsM08tnauYEwvajaNZo-34" value="N" style="resizable=0;html=1;whiteSpace=wrap;align=right;verticalAlign=bottom;" parent="rlsM08tnauYEwvajaNZo-33" connectable="0" vertex="1">
          <mxGeometry x="1" relative="1" as="geometry" />
        </mxCell>
        <mxCell id="rlsM08tnauYEwvajaNZo-36" value="Has" style="shape=rhombus;double=1;perimeter=rhombusPerimeter;whiteSpace=wrap;html=1;align=center;" parent="1" vertex="1">
          <mxGeometry x="280" y="170" width="120" height="60" as="geometry" />
        </mxCell>
        <mxCell id="rlsM08tnauYEwvajaNZo-38" value="Has" style="shape=rhombus;perimeter=rhombusPerimeter;whiteSpace=wrap;html=1;align=center;" parent="1" vertex="1">
          <mxGeometry x="320" y="560" width="120" height="60" as="geometry" />
        </mxCell>
        <mxCell id="rlsM08tnauYEwvajaNZo-39" value="" style="endArrow=none;html=1;rounded=0;" parent="1" source="rlsM08tnauYEwvajaNZo-8" target="rlsM08tnauYEwvajaNZo-38" edge="1">
          <mxGeometry relative="1" as="geometry">
            <mxPoint x="250" y="720" as="sourcePoint" />
            <mxPoint x="410" y="720" as="targetPoint" />
          </mxGeometry>
        </mxCell>
        <mxCell id="rlsM08tnauYEwvajaNZo-40" value="N" style="resizable=0;html=1;whiteSpace=wrap;align=right;verticalAlign=bottom;" parent="rlsM08tnauYEwvajaNZo-39" connectable="0" vertex="1">
          <mxGeometry x="1" relative="1" as="geometry">
            <mxPoint x="1" y="-2" as="offset" />
          </mxGeometry>
        </mxCell>
        <mxCell id="rlsM08tnauYEwvajaNZo-43" value="" style="endArrow=none;html=1;rounded=0;" parent="1" source="rlsM08tnauYEwvajaNZo-10" target="rlsM08tnauYEwvajaNZo-38" edge="1">
          <mxGeometry relative="1" as="geometry">
            <mxPoint x="610" y="630" as="sourcePoint" />
            <mxPoint x="820" y="480" as="targetPoint" />
          </mxGeometry>
        </mxCell>
        <mxCell id="rlsM08tnauYEwvajaNZo-44" value="N" style="resizable=0;html=1;whiteSpace=wrap;align=right;verticalAlign=bottom;" parent="rlsM08tnauYEwvajaNZo-43" connectable="0" vertex="1">
          <mxGeometry x="1" relative="1" as="geometry">
            <mxPoint x="7" y="-4" as="offset" />
          </mxGeometry>
        </mxCell>
        <mxCell id="rlsM08tnauYEwvajaNZo-52" value="a user can create multiple libraries&amp;nbsp;&lt;span style=&quot;background-color: initial;&quot;&gt;to store books, but these stashes cannot exist without a user.&lt;/span&gt;" style="text;strokeColor=none;fillColor=none;spacingLeft=4;spacingRight=4;overflow=hidden;rotatable=0;points=[[0,0.5],[1,0.5]];portConstraint=eastwest;fontSize=12;whiteSpace=wrap;html=1;" parent="1" vertex="1">
          <mxGeometry x="560" y="100" width="290" height="50" as="geometry" />
        </mxCell>
        <mxCell id="rlsM08tnauYEwvajaNZo-62" style="edgeStyle=orthogonalEdgeStyle;rounded=0;orthogonalLoop=1;jettySize=auto;html=1;entryX=0;entryY=0;entryDx=0;entryDy=0;" parent="1" source="rlsM08tnauYEwvajaNZo-53" target="rlsM08tnauYEwvajaNZo-26" edge="1">
          <mxGeometry relative="1" as="geometry" />
        </mxCell>
        <mxCell id="rlsM08tnauYEwvajaNZo-53" value="User uploads/downloads/copies a book, userID to validate&amp;nbsp;&lt;div&gt;if user should be able to see the book&lt;/div&gt;" style="text;html=1;align=left;verticalAlign=middle;resizable=0;points=[];autosize=1;strokeColor=none;fillColor=none;" parent="1" vertex="1">
          <mxGeometry x="140" y="315" width="340" height="40" as="geometry" />
        </mxCell>
        <mxCell id="rlsM08tnauYEwvajaNZo-54" value="" style="endArrow=none;html=1;rounded=0;" parent="1" source="rlsM08tnauYEwvajaNZo-8" target="rlsM08tnauYEwvajaNZo-26" edge="1">
          <mxGeometry relative="1" as="geometry">
            <mxPoint x="670" y="690.83" as="sourcePoint" />
            <mxPoint x="830" y="690.83" as="targetPoint" />
          </mxGeometry>
        </mxCell>
        <mxCell id="rlsM08tnauYEwvajaNZo-55" value="N" style="resizable=0;html=1;whiteSpace=wrap;align=right;verticalAlign=bottom;" parent="rlsM08tnauYEwvajaNZo-54" connectable="0" vertex="1">
          <mxGeometry x="1" relative="1" as="geometry" />
        </mxCell>
        <mxCell id="rlsM08tnauYEwvajaNZo-56" value="" style="endArrow=none;html=1;rounded=0;" parent="1" source="rlsM08tnauYEwvajaNZo-25" target="rlsM08tnauYEwvajaNZo-26" edge="1">
          <mxGeometry relative="1" as="geometry">
            <mxPoint x="660" y="570" as="sourcePoint" />
            <mxPoint x="820" y="570" as="targetPoint" />
          </mxGeometry>
        </mxCell>
        <mxCell id="rlsM08tnauYEwvajaNZo-57" value="N" style="resizable=0;html=1;whiteSpace=wrap;align=right;verticalAlign=bottom;" parent="rlsM08tnauYEwvajaNZo-56" connectable="0" vertex="1">
          <mxGeometry x="1" relative="1" as="geometry" />
        </mxCell>
        <mxCell id="rlsM08tnauYEwvajaNZo-63" value="Is/Contains/Instance of" style="shape=rhombus;perimeter=rhombusPerimeter;whiteSpace=wrap;html=1;align=center;" parent="1" vertex="1">
          <mxGeometry x="610" y="360" width="160" height="80" as="geometry" />
        </mxCell>
        <mxCell id="rlsM08tnauYEwvajaNZo-64" value="" style="endArrow=none;html=1;rounded=0;" parent="1" source="rlsM08tnauYEwvajaNZo-25" target="rlsM08tnauYEwvajaNZo-63" edge="1">
          <mxGeometry relative="1" as="geometry">
            <mxPoint x="665" y="419.17" as="sourcePoint" />
            <mxPoint x="690" y="330" as="targetPoint" />
          </mxGeometry>
        </mxCell>
        <mxCell id="rlsM08tnauYEwvajaNZo-65" value="N" style="resizable=0;html=1;whiteSpace=wrap;align=right;verticalAlign=bottom;" parent="rlsM08tnauYEwvajaNZo-64" connectable="0" vertex="1">
          <mxGeometry x="1" relative="1" as="geometry">
            <mxPoint x="3" y="-3" as="offset" />
          </mxGeometry>
        </mxCell>
        <mxCell id="rlsM08tnauYEwvajaNZo-66" value="" style="endArrow=none;html=1;rounded=0;" parent="1" source="rlsM08tnauYEwvajaNZo-10" target="rlsM08tnauYEwvajaNZo-63" edge="1">
          <mxGeometry relative="1" as="geometry">
            <mxPoint x="650" y="459.17" as="sourcePoint" />
            <mxPoint x="810" y="459.17" as="targetPoint" />
          </mxGeometry>
        </mxCell>
        <mxCell id="rlsM08tnauYEwvajaNZo-67" value="N" style="resizable=0;html=1;whiteSpace=wrap;align=right;verticalAlign=bottom;" parent="rlsM08tnauYEwvajaNZo-66" connectable="0" vertex="1">
          <mxGeometry x="1" relative="1" as="geometry">
            <mxPoint x="13" y="17" as="offset" />
          </mxGeometry>
        </mxCell>
        <mxCell id="rlsM08tnauYEwvajaNZo-75" value="page" style="ellipse;whiteSpace=wrap;html=1;align=center;" parent="1" vertex="1">
          <mxGeometry x="372.5" y="510" width="75" height="30" as="geometry" />
        </mxCell>
        <mxCell id="rlsM08tnauYEwvajaNZo-80" value="" style="endArrow=none;html=1;rounded=0;" parent="1" source="rlsM08tnauYEwvajaNZo-38" target="rlsM08tnauYEwvajaNZo-75" edge="1">
          <mxGeometry relative="1" as="geometry">
            <mxPoint x="340" y="660" as="sourcePoint" />
            <mxPoint x="500" y="660" as="targetPoint" />
          </mxGeometry>
        </mxCell>
        <mxCell id="rlsM08tnauYEwvajaNZo-91" value="" style="endArrow=none;html=1;rounded=0;" parent="1" source="rlsM08tnauYEwvajaNZo-25" target="B-KR8JkOol1o-h9LXaWs-1" edge="1">
          <mxGeometry relative="1" as="geometry">
            <mxPoint x="514" y="367" as="sourcePoint" />
            <mxPoint x="526" y="358" as="targetPoint" />
          </mxGeometry>
        </mxCell>
        <mxCell id="rlsM08tnauYEwvajaNZo-98" style="edgeStyle=orthogonalEdgeStyle;rounded=0;orthogonalLoop=1;jettySize=auto;html=1;entryX=0.862;entryY=0.096;entryDx=0;entryDy=0;entryPerimeter=0;" parent="1" source="rlsM08tnauYEwvajaNZo-52" target="rlsM08tnauYEwvajaNZo-25" edge="1">
          <mxGeometry relative="1" as="geometry" />
        </mxCell>
        <mxCell id="B-KR8JkOol1o-h9LXaWs-1" value="&lt;span style=&quot;border-bottom: 1px dotted&quot;&gt;libraryID&lt;/span&gt;" style="ellipse;whiteSpace=wrap;html=1;align=center;" parent="1" vertex="1">
          <mxGeometry x="390" y="120" width="100" height="40" as="geometry" />
        </mxCell>
      </root>
    </mxGraphModel>
  </diagram>
</mxfile>
